<?xml version="1.0" encoding="UTF-8"?>
<svg version="1.1" xmlns="http://www.w3.org/2000/svg" width="256" height="256">
<path d="M0 0 C5.95995215 3.36087527 9.9340927 8.42854153 12.015625 14.921875 C13.1682816 20.7075397 12.14450437 26.21530263 9.34765625 31.3828125 C6.03210418 36.1650297 2.715642 38.49555056 -2.421875 41.109375 C-3.53920051 41.90368223 -4.64322017 42.71698259 -5.734375 43.546875 C-8.35125366 45.46308449 -10.97816173 46.93705976 -13.90234375 48.3359375 C-19.90881402 51.29610075 -25.65546844 54.64776859 -31.421875 58.046875 C-32.94554688 58.93922852 -32.94554688 58.93922852 -34.5 59.84960938 C-40.4029782 63.3106044 -40.4029782 63.3106044 -46.2578125 66.85205078 C-47.13695313 67.39200684 -48.01609375 67.93196289 -48.921875 68.48828125 C-49.6953125 68.96982666 -50.46875 69.45137207 -51.265625 69.94750977 C-53.33615648 71.06318677 -55.12379363 71.65987812 -57.421875 72.109375 C-57.421875 72.769375 -57.421875 73.429375 -57.421875 74.109375 C-59.37772825 75.11421704 -61.33663737 76.11311305 -63.296875 77.109375 C-64.38742188 77.66625 -65.47796875 78.223125 -66.6015625 78.796875 C-69.421875 80.109375 -69.421875 80.109375 -71.421875 80.109375 C-71.421875 80.769375 -71.421875 81.429375 -71.421875 82.109375 C-73.401875 83.099375 -75.381875 84.089375 -77.421875 85.109375 C-77.421875 108.539375 -77.421875 131.969375 -77.421875 156.109375 C-74.451875 157.099375 -74.451875 157.099375 -71.421875 158.109375 C-69.61315695 159.05055862 -67.83158235 160.04542084 -66.078125 161.0859375 C-65.08651367 161.67004395 -64.09490234 162.25415039 -63.07324219 162.85595703 C-61.51331543 163.78577393 -61.51331543 163.78577393 -59.921875 164.734375 C-57.75028706 166.01611147 -55.57841392 167.29736489 -53.40625 168.578125 C-52.36662109 169.19300781 -51.32699219 169.80789062 -50.25585938 170.44140625 C-46.91377179 172.40842403 -43.54876444 174.32780584 -40.171875 176.234375 C-36.16384197 178.49785111 -32.22362545 180.83657098 -28.30859375 183.2578125 C-27.40850586 183.81065918 -26.50841797 184.36350586 -25.58105469 184.93310547 C-23.80107268 186.0293879 -22.02669767 187.13484036 -20.25878906 188.25048828 C-19.44506836 188.7504834 -18.63134766 189.25047852 -17.79296875 189.765625 C-16.7090686 190.44334961 -16.7090686 190.44334961 -15.60327148 191.13476562 C-12.98988178 192.30238193 -11.2583059 192.40529849 -8.421875 192.109375 C-5.94778988 190.83624602 -3.69005868 189.5413798 -1.359375 188.046875 C-0.03160216 187.22339025 1.29652812 186.40048157 2.625 185.578125 C3.28564453 185.16433594 3.94628906 184.75054687 4.62695312 184.32421875 C7.52319445 182.52095338 10.45132473 180.77921622 13.390625 179.046875 C14.82341797 178.19416016 14.82341797 178.19416016 16.28515625 177.32421875 C18.578125 176.109375 18.578125 176.109375 20.578125 176.109375 C20.578125 175.449375 20.578125 174.789375 20.578125 174.109375 C21.86725987 173.43782567 23.15952704 172.77228641 24.453125 172.109375 C25.17242187 171.738125 25.89171875 171.366875 26.6328125 170.984375 C28.578125 170.109375 28.578125 170.109375 30.578125 170.109375 C30.578125 169.449375 30.578125 168.789375 30.578125 168.109375 C31.41730469 167.7071875 31.41730469 167.7071875 32.2734375 167.296875 C39.95204818 163.54398489 47.10210281 159.38138768 54.578125 155.109375 C54.578125 142.569375 54.578125 130.029375 54.578125 117.109375 C53.588125 116.779375 52.598125 116.449375 51.578125 116.109375 C51.578125 116.769375 51.578125 117.429375 51.578125 118.109375 C50.82789063 118.47289063 50.07765625 118.83640625 49.3046875 119.2109375 C37.66925655 124.8408028 37.66925655 124.8408028 27.078125 132.171875 C24.05142636 134.51756645 20.89396209 136.03510779 17.44140625 137.671875 C14.49697175 139.10161614 14.49697175 139.10161614 11.49609375 140.984375 C3.74738752 145.63172481 -2.3817009 147.7154973 -11.421875 146.109375 C-18.89313849 143.83910156 -23.58051212 139.85190705 -27.421875 133.109375 C-30.272456 127.27864114 -30.5542497 120.06251542 -28.76953125 113.83203125 C-25.34103542 106.16573799 -18.68924594 101.8143092 -11.421875 98.109375 C-10.761875 98.109375 -10.101875 98.109375 -9.421875 98.109375 C-9.421875 97.449375 -9.421875 96.789375 -9.421875 96.109375 C-8.67164062 95.74585937 -7.92140625 95.38234375 -7.1484375 95.0078125 C-1.03506248 92.00502125 4.85601757 88.84662726 10.6171875 85.2109375 C12.578125 84.109375 12.578125 84.109375 14.578125 84.109375 C14.578125 83.449375 14.578125 82.789375 14.578125 82.109375 C15.403125 81.72007813 16.228125 81.33078125 17.078125 80.9296875 C25.42591259 76.88622789 33.27064154 72.34184987 41.08203125 67.34375 C41.98332764 66.76850586 41.98332764 66.76850586 42.90283203 66.18164062 C44.389964 65.22980682 45.87301883 64.27160965 47.35546875 63.3125 C49.578125 62.109375 49.578125 62.109375 52.578125 62.109375 C52.578125 61.449375 52.578125 60.789375 52.578125 60.109375 C61.66870156 55.03556483 69.06179864 52.46658792 79.578125 54.109375 C87.99345873 56.69870846 92.6120669 61.71142678 97.390625 68.796875 C99.92930751 73.74062515 99.88993298 78.8115123 100.125 84.26171875 C100.16663269 85.21400864 100.20826538 86.16629852 100.25115967 87.14744568 C100.76313663 100.17741324 100.80174057 113.21502859 100.81835938 126.25317383 C100.82389841 129.95745287 100.84812313 133.66137454 100.87633133 137.3655405 C100.89509899 140.27323898 100.90017007 143.180852 100.90169525 146.08860588 C100.90609584 148.10513991 100.92462394 150.12162785 100.94366455 152.13807678 C100.91105268 165.71462804 99.06815686 176.97920609 89.578125 187.109375 C79.12440218 196.8069515 63.83349694 205.07512552 50.578125 210.109375 C50.578125 210.769375 50.578125 211.429375 50.578125 212.109375 C49.98966797 212.39127686 49.40121094 212.67317871 48.79492188 212.96362305 C40.95597015 216.79193049 33.54475656 221.21915473 26.0859375 225.73242188 C24.67441406 226.57836914 24.67441406 226.57836914 23.234375 227.44140625 C22.38681641 227.95421143 21.53925781 228.4670166 20.66601562 228.99536133 C18.578125 230.109375 18.578125 230.109375 16.578125 230.109375 C16.578125 230.769375 16.578125 231.429375 16.578125 232.109375 C13.8740445 233.43130299 11.16543232 234.74202321 8.453125 236.046875 C7.69257813 236.42005859 6.93203125 236.79324219 6.1484375 237.17773438 C-3.47136896 241.78031419 -13.26071509 242.4259776 -23.421875 239.109375 C-32.31632034 235.43647616 -40.47301474 230.17290429 -48.65551758 225.16064453 C-49.48720459 224.65259277 -50.3188916 224.14454102 -51.17578125 223.62109375 C-51.92158447 223.16178467 -52.6673877 222.70247559 -53.43579102 222.22924805 C-55.52046048 220.97067991 -55.52046048 220.97067991 -58.421875 220.109375 C-58.421875 219.449375 -58.421875 218.789375 -58.421875 218.109375 C-59.28683594 217.85285156 -60.15179688 217.59632813 -61.04296875 217.33203125 C-64.54137736 216.06613311 -67.32509956 214.50846644 -70.484375 212.546875 C-75.78399662 209.27893853 -81.13290548 206.11096421 -86.53515625 203.015625 C-88.47427795 201.89901901 -90.41294627 200.78162924 -92.35153198 199.66409302 C-93.63346536 198.92787372 -94.91738358 198.19509819 -96.20339966 197.46603394 C-116.3557911 186.03074328 -116.3557911 186.03074328 -120.921875 175.796875 C-121.3859375 174.79011719 -121.85 173.78335938 -122.328125 172.74609375 C-124.34498157 167.88402881 -124.57597483 163.75481239 -124.58300781 158.55810547 C-124.58797272 157.6845491 -124.59293762 156.81099274 -124.59805298 155.91096497 C-124.61267619 153.01615615 -124.61947831 150.12140221 -124.625 147.2265625 C-124.63075311 145.21216836 -124.63651082 143.19777424 -124.64227295 141.18338013 C-124.65278462 136.95493312 -124.65862561 132.72650512 -124.66210938 128.49804688 C-124.66758209 123.09455396 -124.69158328 117.69131455 -124.72008133 112.28790092 C-124.73876207 108.12359906 -124.74391629 103.95935746 -124.74544525 99.79501724 C-124.74846209 97.80402369 -124.75645771 95.81303096 -124.76963043 93.8220787 C-124.78679803 91.02686424 -124.78478419 88.23225837 -124.77832031 85.43701172 C-124.7875351 84.62316513 -124.79674988 83.80931854 -124.8062439 82.97080994 C-124.74216769 74.06867859 -121.90623967 64.92591483 -115.734375 58.296875 C-115.0846875 57.7090625 -115.0846875 57.7090625 -114.421875 57.109375 C-114.091875 56.449375 -113.761875 55.789375 -113.421875 55.109375 C-111.78568826 54.13935 -110.11176653 53.23248563 -108.421875 52.359375 C-104.78643636 50.42921944 -101.31203529 48.443181 -97.921875 46.109375 C-93.80824875 43.29594848 -89.54033023 40.90959586 -85.14453125 38.56640625 C-81.79221173 36.77241029 -78.49510296 34.88746992 -75.19921875 32.9921875 C-73.421875 32.109375 -73.421875 32.109375 -71.421875 32.109375 C-71.421875 31.449375 -71.421875 30.789375 -71.421875 30.109375 C-70.92042969 29.87605469 -70.41898438 29.64273437 -69.90234375 29.40234375 C-58.33521168 23.82568553 -47.31180748 17.10516167 -36.35180664 10.43041992 C-33.38940601 8.63222067 -30.40694868 6.8697156 -27.421875 5.109375 C-26.38675781 4.48546875 -25.35164063 3.8615625 -24.28515625 3.21875 C-16.53630664 -1.11655409 -8.64219132 -3.17809616 0 0 Z " fill="#09090B" transform="translate(132.421875,0.890625)"/>
<path d="M0 0 C0.66 0 1.32 0 2 0 C2 0.66 2 1.32 2 2 C1.34 2 0.68 2 0 2 C0 1.34 0 0.68 0 0 Z " fill="#09090B" transform="translate(76,233)"/>
<path d="M0 0 C0.66 0 1.32 0 2 0 C2 0.66 2 1.32 2 2 C1.34 2 0.68 2 0 2 C0 1.34 0 0.68 0 0 Z " fill="#09090B" transform="translate(74,117)"/>
<path d="M0 0 C0.66 0 1.32 0 2 0 C2 0.66 2 1.32 2 2 C1.34 2 0.68 2 0 2 C0 1.34 0 0.68 0 0 Z " fill="#09090B" transform="translate(240,25)"/>
<path d="M0 0 C0.66 0 1.32 0 2 0 C2 0.66 2 1.32 2 2 C1.34 2 0.68 2 0 2 C0 1.34 0 0.68 0 0 Z " fill="#09090B" transform="translate(198,15)"/>
</svg>
